# xmcd
#
# Track frame offsets: 
#        183
#        13213
#        27243
#        40890
#        54385
#        68678
#        82608
#        96715
#        110490
#        124785
#        136543
#        150413
#        163980
#        177153
#        190635
#        204925
#
# Disc length: 2915 seconds
#
# Revision: 6
# Processed by: cddbd v1.5.2PL0 Copyright (c) Steve Scherf et al.
# Submitted via: ExactAudioCopyFreeDBPlugin 1.0
#
DISCID=c70b6110
DTITLE=Leadbelly - Midnight Special
DYEAR=1995
DGENRE=Blues
TTITLE0=Good Morning Blues
TTITLE1=Whoa, Back Buck
TTITLE2=New York City
TTITLE3=Pick A Bale Of Cotton
TTITLE4=Alberta
TTITLE5=Midnight Special
TTITLE6=The Red Cross Store Blues
TTITLE7=Alabama Bound
TTITLE8=Easy Rider
TTITLE9=Rock Island Line
TTITLE10=You Can't Lose-a Me Cholly
TTITLE11=Roberta
TTITLE12=Can't You Line 'Em
TTITLE13=Stewball
TTITLE14=I'm On My Last Go-Round
TTITLE15=Gray Goose
EXTD=
EXTT0=
EXTT1=
EXTT2=
EXTT3=
EXTT4=
EXTT5=
EXTT6=
EXTT7=
EXTT8=
EXTT9=
EXTT10=
EXTT11=
EXTT12=
EXTT13=
EXTT14=
EXTT15=
PLAYORDER=
